<?xml version="1.0" encoding="UTF-8"?><svg id="Layer_2" xmlns="http://www.w3.org/2000/svg" viewBox="0 0 849.5 814.11"><defs><style>.cls-1{fill:#ff6d6d;stroke-width:0px;}</style></defs><g id="Post"><rect class="cls-1" x="283.17" width="35.4" height="35.4"/><rect class="cls-1" x="283.17" y="35.4" width="35.4" height="35.4"/><rect class="cls-1" x="318.56" y="35.4" width="35.4" height="35.4"/><rect class="cls-1" x="283.17" y="70.79" width="35.4" height="35.4"/><rect class="cls-1" x="318.56" y="70.79" width="35.4" height="35.4"/><rect class="cls-1" x="283.17" y="106.19" width="35.4" height="35.4"/><rect class="cls-1" x="318.56" y="106.19" width="35.4" height="35.4"/><rect class="cls-1" x="353.96" y="70.79" width="35.4" height="35.4"/><rect class="cls-1" x="353.96" y="106.19" width="35.4" height="35.4"/><rect class="cls-1" x="389.36" y="106.19" width="35.4" height="35.4"/><rect class="cls-1" x="283.17" y="141.58" width="35.4" height="35.4"/><rect class="cls-1" x="318.56" y="141.58" width="35.4" height="35.4"/><rect class="cls-1" x="283.17" y="176.98" width="35.4" height="35.4"/><rect class="cls-1" x="318.56" y="176.98" width="35.4" height="35.4"/><rect class="cls-1" x="353.96" y="141.58" width="35.4" height="35.4"/><rect class="cls-1" x="389.36" y="141.58" width="35.4" height="35.4"/><rect class="cls-1" x="353.96" y="176.98" width="35.4" height="35.4"/><rect class="cls-1" x="389.36" y="176.98" width="35.4" height="35.4"/><rect class="cls-1" x="424.75" y="176.98" width="35.4" height="35.4"/><rect class="cls-1" y="247.77" width="35.4" height="35.4"/><rect class="cls-1" x="35.4" y="247.77" width="35.4" height="35.4"/><rect class="cls-1" x="70.79" y="247.77" width="35.4" height="35.4"/><rect class="cls-1" x="106.19" y="247.77" width="35.4" height="35.4"/><rect class="cls-1" x="141.58" y="247.77" width="35.4" height="35.4"/><rect class="cls-1" x="176.98" y="247.77" width="35.4" height="35.4"/><rect class="cls-1" x="283.17" y="212.38" width="35.4" height="35.4"/><rect class="cls-1" x="318.56" y="212.38" width="35.4" height="35.4"/><rect class="cls-1" x="212.38" y="247.77" width="35.4" height="35.4"/><rect class="cls-1" x="247.77" y="247.77" width="35.4" height="35.4"/><rect class="cls-1" x="283.17" y="247.77" width="35.4" height="35.4"/><rect class="cls-1" x="318.56" y="247.77" width="35.4" height="35.4"/><rect class="cls-1" x="353.96" y="212.38" width="35.4" height="35.4"/><rect class="cls-1" x="389.36" y="212.38" width="35.4" height="35.4"/><rect class="cls-1" x="424.75" y="212.38" width="35.4" height="35.4"/><rect class="cls-1" x="460.15" y="212.38" width="35.4" height="35.4"/><rect class="cls-1" x="353.96" y="247.77" width="35.4" height="35.4"/><rect class="cls-1" x="389.36" y="247.77" width="35.4" height="35.4"/><rect class="cls-1" x="424.75" y="247.77" width="35.4" height="35.4"/><rect class="cls-1" x="460.15" y="247.77" width="35.4" height="35.4"/><rect class="cls-1" x="495.54" y="247.77" width="35.4" height="35.4"/><rect class="cls-1" x="35.4" y="283.17" width="35.4" height="35.4"/><rect class="cls-1" x="70.79" y="283.17" width="35.4" height="35.4"/><rect class="cls-1" x="106.19" y="283.17" width="35.4" height="35.4"/><rect class="cls-1" x="141.58" y="283.17" width="35.4" height="35.4"/><rect class="cls-1" x="176.98" y="283.17" width="35.4" height="35.4"/><rect class="cls-1" x="70.79" y="318.56" width="35.4" height="35.4"/><rect class="cls-1" x="106.19" y="318.56" width="35.4" height="35.4"/><rect class="cls-1" x="141.58" y="318.56" width="35.4" height="35.4"/><rect class="cls-1" x="176.98" y="318.56" width="35.4" height="35.4"/><rect class="cls-1" x="212.38" y="283.17" width="35.4" height="35.4"/><rect class="cls-1" x="247.77" y="283.17" width="35.4" height="35.4"/><rect class="cls-1" x="283.17" y="283.17" width="35.4" height="35.4"/><rect class="cls-1" x="318.56" y="283.17" width="35.4" height="35.4"/><rect class="cls-1" x="212.38" y="318.56" width="35.4" height="35.4"/><rect class="cls-1" x="247.77" y="318.56" width="35.4" height="35.4"/><rect class="cls-1" x="283.17" y="318.56" width="35.4" height="35.4"/><rect class="cls-1" x="318.56" y="318.56" width="35.4" height="35.4"/><rect class="cls-1" x="353.96" y="283.17" width="35.4" height="35.4"/><rect class="cls-1" x="389.36" y="283.17" width="35.4" height="35.4"/><rect class="cls-1" x="424.75" y="283.17" width="35.4" height="35.4"/><rect class="cls-1" x="460.15" y="283.17" width="35.4" height="35.4"/><rect class="cls-1" x="353.96" y="318.56" width="35.4" height="35.4"/><rect class="cls-1" x="424.75" y="318.56" width="35.4" height="35.4"/><rect class="cls-1" x="460.15" y="318.56" width="35.4" height="35.4"/><rect class="cls-1" x="495.54" y="283.17" width="35.4" height="35.4"/><rect class="cls-1" x="530.94" y="283.17" width="35.4" height="35.4"/><rect class="cls-1" x="566.34" y="283.17" width="35.4" height="35.4"/><rect class="cls-1" x="601.73" y="283.17" width="35.4" height="35.4"/><rect class="cls-1" x="495.54" y="318.56" width="35.4" height="35.4"/><rect class="cls-1" x="530.94" y="318.56" width="35.4" height="35.4"/><rect class="cls-1" x="566.34" y="318.56" width="35.4" height="35.4"/><rect class="cls-1" x="601.73" y="318.56" width="35.4" height="35.4"/><rect class="cls-1" x="637.13" y="283.17" width="35.4" height="35.4"/><rect class="cls-1" x="637.13" y="318.56" width="35.4" height="35.4"/><rect class="cls-1" x="672.52" y="318.56" width="35.4" height="35.4"/><rect class="cls-1" x="707.92" y="318.56" width="35.4" height="35.4"/><rect class="cls-1" x="743.32" y="318.56" width="35.4" height="35.4"/><rect class="cls-1" x="778.71" y="318.56" width="35.4" height="35.4"/><rect class="cls-1" x="106.19" y="353.96" width="35.4" height="35.4"/><rect class="cls-1" x="141.58" y="353.96" width="35.4" height="35.4"/><rect class="cls-1" x="176.98" y="353.96" width="35.4" height="35.4"/><rect class="cls-1" x="141.58" y="389.36" width="35.4" height="35.4"/><rect class="cls-1" x="176.98" y="389.36" width="35.4" height="35.4"/><rect class="cls-1" x="212.38" y="353.96" width="35.4" height="35.4"/><rect class="cls-1" x="247.77" y="353.96" width="35.4" height="35.4"/><rect class="cls-1" x="283.17" y="353.96" width="35.4" height="35.4"/><rect class="cls-1" x="318.56" y="353.96" width="35.4" height="35.4"/><rect class="cls-1" x="212.38" y="389.36" width="35.4" height="35.4"/><rect class="cls-1" x="247.77" y="389.36" width="35.4" height="35.4"/><rect class="cls-1" x="283.17" y="389.36" width="35.4" height="35.4"/><rect class="cls-1" x="353.96" y="353.96" width="35.4" height="35.4"/><rect class="cls-1" x="460.15" y="353.96" width="35.4" height="35.4"/><rect class="cls-1" x="495.54" y="353.96" width="35.4" height="35.4"/><rect class="cls-1" x="530.94" y="353.96" width="35.4" height="35.4"/><rect class="cls-1" x="566.34" y="353.96" width="35.4" height="35.4"/><rect class="cls-1" x="601.73" y="353.96" width="35.4" height="35.4"/><rect class="cls-1" x="495.54" y="389.36" width="35.4" height="35.4"/><rect class="cls-1" x="530.94" y="389.36" width="35.4" height="35.4"/><rect class="cls-1" x="566.34" y="389.36" width="35.4" height="35.4"/><rect class="cls-1" x="601.73" y="389.36" width="35.4" height="35.4"/><rect class="cls-1" x="637.13" y="353.96" width="35.4" height="35.4"/><rect class="cls-1" x="672.52" y="353.96" width="35.4" height="35.4"/><rect class="cls-1" x="707.92" y="353.96" width="35.4" height="35.4"/><rect class="cls-1" x="743.32" y="353.96" width="35.4" height="35.4"/><rect class="cls-1" x="637.13" y="389.36" width="35.4" height="35.4"/><rect class="cls-1" x="672.52" y="389.36" width="35.4" height="35.4"/><rect class="cls-1" x="707.92" y="389.36" width="35.4" height="35.4"/><rect class="cls-1" y="460.15" width="35.4" height="35.4"/><rect class="cls-1" x="35.4" y="460.15" width="35.4" height="35.4"/><rect class="cls-1" x="70.79" y="424.75" width="35.4" height="35.4"/><rect class="cls-1" x="106.19" y="424.75" width="35.4" height="35.4"/><rect class="cls-1" x="141.58" y="424.75" width="35.4" height="35.4"/><rect class="cls-1" x="176.98" y="424.75" width="35.4" height="35.4"/><rect class="cls-1" x="70.79" y="460.15" width="35.4" height="35.4"/><rect class="cls-1" x="106.19" y="460.15" width="35.4" height="35.4"/><rect class="cls-1" x="141.58" y="460.15" width="35.4" height="35.4"/><rect class="cls-1" x="176.98" y="460.15" width="35.4" height="35.4"/><rect class="cls-1" x="212.38" y="424.75" width="35.4" height="35.4"/><rect class="cls-1" x="247.77" y="424.75" width="35.4" height="35.4"/><rect class="cls-1" x="283.17" y="424.75" width="35.4" height="35.4"/><rect class="cls-1" x="318.56" y="424.75" width="35.4" height="35.4"/><rect class="cls-1" x="212.38" y="460.15" width="35.4" height="35.4"/><rect class="cls-1" x="247.77" y="460.15" width="35.4" height="35.4"/><rect class="cls-1" x="283.17" y="460.15" width="35.4" height="35.4"/><rect class="cls-1" x="460.15" y="424.75" width="35.4" height="35.4"/><rect class="cls-1" x="495.54" y="424.75" width="35.4" height="35.4"/><rect class="cls-1" x="530.94" y="424.75" width="35.4" height="35.4"/><rect class="cls-1" x="566.34" y="424.75" width="35.4" height="35.4"/><rect class="cls-1" x="601.73" y="424.75" width="35.4" height="35.4"/><rect class="cls-1" x="495.54" y="460.15" width="35.4" height="35.4"/><rect class="cls-1" x="530.94" y="460.15" width="35.4" height="35.4"/><rect class="cls-1" x="566.34" y="460.15" width="35.4" height="35.4"/><rect class="cls-1" x="601.73" y="460.15" width="35.4" height="35.4"/><rect class="cls-1" x="637.13" y="424.75" width="35.4" height="35.4"/><rect class="cls-1" x="637.13" y="460.15" width="35.4" height="35.4"/><rect class="cls-1" x="672.52" y="460.15" width="35.4" height="35.4"/><rect class="cls-1" x="35.4" y="495.54" width="35.4" height="35.4"/><rect class="cls-1" x="70.79" y="495.54" width="35.4" height="35.4"/><rect class="cls-1" x="106.19" y="495.54" width="35.4" height="35.4"/><rect class="cls-1" x="141.58" y="495.54" width="35.4" height="35.4"/><rect class="cls-1" x="176.98" y="495.54" width="35.4" height="35.4"/><rect class="cls-1" x="141.58" y="530.94" width="35.4" height="35.4"/><rect class="cls-1" x="176.98" y="530.94" width="35.4" height="35.4"/><rect class="cls-1" x="212.38" y="495.54" width="35.4" height="35.4"/><rect class="cls-1" x="247.77" y="495.54" width="35.4" height="35.4"/><rect class="cls-1" x="283.17" y="495.54" width="35.4" height="35.4"/><rect class="cls-1" x="318.56" y="495.54" width="35.4" height="35.4"/><rect class="cls-1" x="212.38" y="530.94" width="35.4" height="35.4"/><rect class="cls-1" x="247.77" y="530.94" width="35.4" height="35.4"/><rect class="cls-1" x="283.17" y="530.94" width="35.4" height="35.4"/><rect class="cls-1" x="318.56" y="530.94" width="35.4" height="35.4"/><rect class="cls-1" x="353.96" y="495.54" width="35.4" height="35.4"/><rect class="cls-1" x="424.75" y="495.54" width="35.4" height="35.4"/><rect class="cls-1" x="460.15" y="495.54" width="35.4" height="35.4"/><rect class="cls-1" x="353.96" y="530.94" width="35.4" height="35.4"/><rect class="cls-1" x="389.36" y="530.94" width="35.4" height="35.4"/><rect class="cls-1" x="424.75" y="530.94" width="35.4" height="35.4"/><rect class="cls-1" x="460.15" y="530.94" width="35.4" height="35.4"/><rect class="cls-1" x="495.54" y="495.54" width="35.4" height="35.4"/><rect class="cls-1" x="530.94" y="495.54" width="35.4" height="35.4"/><rect class="cls-1" x="566.34" y="495.54" width="35.4" height="35.4"/><rect class="cls-1" x="601.73" y="495.54" width="35.4" height="35.4"/><rect class="cls-1" x="495.54" y="530.94" width="35.4" height="35.4"/><rect class="cls-1" x="530.94" y="530.94" width="35.4" height="35.4"/><rect class="cls-1" x="566.34" y="530.94" width="35.4" height="35.4"/><rect class="cls-1" x="601.73" y="530.94" width="35.4" height="35.4"/><rect class="cls-1" x="637.13" y="495.54" width="35.4" height="35.4"/><rect class="cls-1" x="672.52" y="495.54" width="35.4" height="35.4"/><rect class="cls-1" x="707.92" y="495.54" width="35.4" height="35.4"/><rect class="cls-1" x="743.32" y="495.54" width="35.4" height="35.4"/><rect class="cls-1" x="637.13" y="530.94" width="35.4" height="35.4"/><rect class="cls-1" x="672.52" y="530.94" width="35.4" height="35.4"/><rect class="cls-1" x="707.92" y="530.94" width="35.4" height="35.4"/><rect class="cls-1" x="743.32" y="530.94" width="35.4" height="35.4"/><rect class="cls-1" x="778.71" y="530.94" width="35.4" height="35.4"/><rect class="cls-1" x="283.17" y="566.34" width="35.4" height="35.4"/><rect class="cls-1" x="318.56" y="566.34" width="35.4" height="35.4"/><rect class="cls-1" x="283.17" y="601.73" width="35.4" height="35.4"/><rect class="cls-1" x="318.56" y="601.73" width="35.4" height="35.4"/><rect class="cls-1" x="353.96" y="566.34" width="35.4" height="35.4"/><rect class="cls-1" x="389.36" y="566.34" width="35.4" height="35.4"/><rect class="cls-1" x="424.75" y="566.34" width="35.4" height="35.4"/><rect class="cls-1" x="460.15" y="566.34" width="35.4" height="35.4"/><rect class="cls-1" x="353.96" y="601.73" width="35.4" height="35.4"/><rect class="cls-1" x="389.36" y="601.73" width="35.4" height="35.4"/><rect class="cls-1" x="424.75" y="601.73" width="35.4" height="35.4"/><rect class="cls-1" x="460.15" y="601.73" width="35.4" height="35.4"/><rect class="cls-1" x="495.54" y="566.34" width="35.4" height="35.4"/><rect class="cls-1" x="530.94" y="566.34" width="35.4" height="35.4"/><rect class="cls-1" x="566.34" y="566.34" width="35.4" height="35.4"/><rect class="cls-1" x="601.73" y="566.34" width="35.4" height="35.4"/><rect class="cls-1" x="637.13" y="566.34" width="35.4" height="35.4"/><rect class="cls-1" x="672.52" y="566.34" width="35.4" height="35.4"/><rect class="cls-1" x="707.92" y="566.34" width="35.4" height="35.4"/><rect class="cls-1" x="743.32" y="566.34" width="35.4" height="35.4"/><rect class="cls-1" x="778.71" y="566.34" width="35.4" height="35.4"/><rect class="cls-1" x="814.11" y="566.34" width="35.4" height="35.4"/><rect class="cls-1" x="283.17" y="637.13" width="35.4" height="35.4"/><rect class="cls-1" x="318.56" y="637.13" width="35.4" height="35.4"/><rect class="cls-1" x="283.17" y="672.52" width="35.4" height="35.4"/><rect class="cls-1" x="318.56" y="672.52" width="35.4" height="35.4"/><rect class="cls-1" x="353.96" y="637.13" width="35.4" height="35.4"/><rect class="cls-1" x="389.36" y="637.13" width="35.4" height="35.4"/><rect class="cls-1" x="424.75" y="637.13" width="35.4" height="35.4"/><rect class="cls-1" x="353.96" y="672.52" width="35.4" height="35.4"/><rect class="cls-1" x="389.36" y="672.52" width="35.4" height="35.4"/><rect class="cls-1" x="283.17" y="707.92" width="35.4" height="35.4"/><rect class="cls-1" x="318.56" y="707.92" width="35.4" height="35.4"/><rect class="cls-1" x="283.17" y="743.32" width="35.4" height="35.4"/><rect class="cls-1" x="318.56" y="743.32" width="35.4" height="35.4"/><rect class="cls-1" x="353.96" y="707.92" width="35.4" height="35.4"/><rect class="cls-1" x="283.17" y="778.71" width="35.4" height="35.4"/></g></svg>