<?xml version="1.0" encoding="UTF-8"?><svg id="Layer_2" xmlns="http://www.w3.org/2000/svg" viewBox="0 0 566.34 600.72"><defs><style>.cls-1{fill:#94e9d5;stroke-width:0px;}</style></defs><g id="Post"><rect class="cls-1" x="176.98" width="35.4" height="35.4"/><rect class="cls-1" x="212.38" width="35.4" height="35.4"/><rect class="cls-1" x="247.77" width="35.4" height="35.4"/><rect class="cls-1" x="283.17" width="35.4" height="35.4"/><rect class="cls-1" x="318.56" width="35.4" height="35.4"/><rect class="cls-1" x="353.96" width="35.4" height="35.4"/><rect class="cls-1" x="389.36" width="35.4" height="35.4"/><rect class="cls-1" x="106.19" y="35.4" width="35.4" height="35.4"/><rect class="cls-1" x="141.58" y="35.4" width="35.4" height="35.4"/><rect class="cls-1" x="176.98" y="35.4" width="35.4" height="35.4"/><rect class="cls-1" x="212.38" y="35.4" width="35.4" height="35.4"/><rect class="cls-1" x="247.77" y="35.4" width="35.4" height="35.4"/><rect class="cls-1" x="283.17" y="35.4" width="35.4" height="35.4"/><rect class="cls-1" x="318.56" y="35.4" width="35.4" height="35.4"/><rect class="cls-1" x="353.96" y="35.4" width="35.4" height="35.4"/><rect class="cls-1" x="389.36" y="35.4" width="35.4" height="35.4"/><rect class="cls-1" x="424.75" y="35.4" width="35.4" height="35.4"/><rect class="cls-1" x="70.79" y="70.79" width="35.4" height="35.4"/><rect class="cls-1" x="106.19" y="70.79" width="35.4" height="35.4"/><rect class="cls-1" x="141.58" y="70.79" width="35.4" height="35.4"/><rect class="cls-1" x="176.98" y="70.79" width="35.4" height="35.4"/><rect class="cls-1" x="212.38" y="70.79" width="35.4" height="35.4"/><rect class="cls-1" x="247.77" y="70.79" width="35.4" height="35.4"/><rect class="cls-1" x="283.17" y="70.79" width="35.4" height="35.4"/><rect class="cls-1" x="318.56" y="70.79" width="35.4" height="35.4"/><rect class="cls-1" x="353.96" y="70.79" width="35.4" height="35.4"/><rect class="cls-1" x="389.36" y="70.79" width="35.4" height="35.4"/><rect class="cls-1" x="424.75" y="70.79" width="35.4" height="35.4"/><rect class="cls-1" x="460.15" y="70.79" width="35.4" height="35.4"/><rect class="cls-1" x="35.4" y="106.19" width="35.4" height="35.4"/><rect class="cls-1" x="70.79" y="106.19" width="35.4" height="35.4"/><rect class="cls-1" x="106.19" y="106.19" width="35.4" height="35.4"/><rect class="cls-1" x="141.58" y="106.19" width="35.4" height="35.4"/><rect class="cls-1" x="389.36" y="106.19" width="35.4" height="35.4"/><rect class="cls-1" x="424.75" y="106.19" width="35.4" height="35.4"/><rect class="cls-1" x="460.15" y="106.19" width="35.4" height="35.4"/><rect class="cls-1" x="495.54" y="106.19" width="35.4" height="35.4"/><rect class="cls-1" y="141.58" width="35.4" height="35.4"/><rect class="cls-1" x="35.4" y="141.58" width="35.4" height="35.4"/><rect class="cls-1" x="70.79" y="141.58" width="35.4" height="35.4"/><rect class="cls-1" x="106.19" y="141.58" width="35.4" height="35.4"/><rect class="cls-1" x="212.38" y="141.58" width="35.4" height="35.4"/><rect class="cls-1" x="247.77" y="141.58" width="35.4" height="35.4"/><rect class="cls-1" x="283.17" y="141.58" width="35.4" height="35.4"/><rect class="cls-1" x="318.56" y="141.58" width="35.4" height="35.4"/><rect class="cls-1" x="424.75" y="141.58" width="35.4" height="35.4"/><rect class="cls-1" x="460.15" y="141.58" width="35.4" height="35.4"/><rect class="cls-1" x="495.54" y="141.58" width="35.4" height="35.4"/><rect class="cls-1" x="530.94" y="141.58" width="35.4" height="35.4"/><rect class="cls-1" y="176.98" width="35.4" height="35.4"/><rect class="cls-1" x="35.4" y="176.98" width="35.4" height="35.4"/><rect class="cls-1" x="70.79" y="176.98" width="35.4" height="35.4"/><rect class="cls-1" x="176.98" y="176.98" width="35.4" height="35.4"/><rect class="cls-1" x="212.38" y="176.98" width="35.4" height="35.4"/><rect class="cls-1" x="247.77" y="176.98" width="35.4" height="35.4"/><rect class="cls-1" x="283.17" y="176.98" width="35.4" height="35.4"/><rect class="cls-1" x="318.56" y="176.98" width="35.4" height="35.4"/><rect class="cls-1" x="353.96" y="176.98" width="35.4" height="35.4"/><rect class="cls-1" x="460.15" y="176.98" width="35.4" height="35.4"/><rect class="cls-1" x="495.54" y="176.98" width="35.4" height="35.4"/><rect class="cls-1" x="530.94" y="176.98" width="35.4" height="35.4"/><rect class="cls-1" y="212.38" width="35.4" height="35.4"/><rect class="cls-1" x="35.4" y="212.38" width="35.4" height="35.4"/><rect class="cls-1" x="141.58" y="212.38" width="35.4" height="35.4"/><rect class="cls-1" x="176.98" y="212.38" width="35.4" height="35.4"/><rect class="cls-1" x="353.96" y="212.38" width="35.4" height="35.4"/><rect class="cls-1" x="389.36" y="212.38" width="35.4" height="35.4"/><rect class="cls-1" x="495.54" y="212.38" width="35.4" height="35.4"/><rect class="cls-1" x="530.94" y="212.38" width="35.4" height="35.4"/><rect class="cls-1" y="247.77" width="35.4" height="35.4"/><rect class="cls-1" x="35.4" y="247.77" width="35.4" height="35.4"/><rect class="cls-1" x="106.19" y="247.77" width="35.4" height="35.4"/><rect class="cls-1" x="141.58" y="247.77" width="35.4" height="35.4"/><rect class="cls-1" x="389.36" y="247.77" width="35.4" height="35.4"/><rect class="cls-1" x="424.75" y="247.77" width="35.4" height="35.4"/><rect class="cls-1" x="495.54" y="247.77" width="35.4" height="35.4"/><rect class="cls-1" x="530.94" y="247.77" width="35.4" height="35.4"/><rect class="cls-1" y="283.17" width="35.4" height="35.4"/><rect class="cls-1" x="35.4" y="283.17" width="35.4" height="35.4"/><rect class="cls-1" x="106.19" y="283.17" width="35.4" height="35.4"/><rect class="cls-1" x="141.58" y="283.17" width="35.4" height="35.4"/><rect class="cls-1" x="389.36" y="283.17" width="35.4" height="35.4"/><rect class="cls-1" x="424.75" y="283.17" width="35.4" height="35.4"/><rect class="cls-1" x="495.54" y="283.17" width="35.4" height="35.4"/><rect class="cls-1" x="530.94" y="283.17" width="35.4" height="35.4"/><rect class="cls-1" y="318.56" width="35.4" height="35.4"/><rect class="cls-1" x="35.4" y="318.56" width="35.4" height="35.4"/><rect class="cls-1" x="106.19" y="318.56" width="35.4" height="35.4"/><rect class="cls-1" x="141.58" y="318.56" width="35.4" height="35.4"/><rect class="cls-1" x="389.36" y="318.56" width="35.4" height="35.4"/><rect class="cls-1" x="424.75" y="318.56" width="35.4" height="35.4"/><rect class="cls-1" x="495.54" y="318.56" width="35.4" height="35.4"/><rect class="cls-1" x="530.94" y="318.56" width="35.4" height="35.4"/><rect class="cls-1" y="353.96" width="35.4" height="35.4"/><rect class="cls-1" x="35.4" y="353.96" width="35.4" height="35.4"/><rect class="cls-1" x="141.58" y="353.96" width="35.4" height="35.4"/><rect class="cls-1" x="176.98" y="353.96" width="35.4" height="35.4"/><rect class="cls-1" x="353.96" y="353.96" width="35.4" height="35.4"/><rect class="cls-1" x="389.36" y="353.96" width="35.4" height="35.4"/><rect class="cls-1" x="495.54" y="353.96" width="35.4" height="35.4"/><rect class="cls-1" x="530.94" y="353.96" width="35.4" height="35.4"/><rect class="cls-1" y="389.36" width="35.4" height="35.4"/><rect class="cls-1" x="35.4" y="389.36" width="35.4" height="35.4"/><rect class="cls-1" x="70.79" y="389.36" width="35.4" height="35.4"/><rect class="cls-1" x="176.98" y="389.36" width="35.4" height="35.4"/><rect class="cls-1" x="212.38" y="389.36" width="35.4" height="35.4"/><rect class="cls-1" x="247.77" y="389.36" width="35.4" height="35.4"/><rect class="cls-1" x="283.17" y="389.36" width="35.4" height="35.4"/><rect class="cls-1" x="318.56" y="389.36" width="35.4" height="35.4"/><rect class="cls-1" x="353.96" y="389.36" width="35.4" height="35.4"/><rect class="cls-1" x="460.15" y="389.36" width="35.4" height="35.4"/><rect class="cls-1" x="495.54" y="389.36" width="35.4" height="35.4"/><rect class="cls-1" x="530.94" y="389.36" width="35.4" height="35.4"/><rect class="cls-1" y="424.75" width="35.4" height="35.4"/><rect class="cls-1" x="35.4" y="424.75" width="35.4" height="35.4"/><rect class="cls-1" x="70.79" y="424.75" width="35.4" height="35.4"/><rect class="cls-1" x="106.19" y="424.75" width="35.4" height="35.4"/><rect class="cls-1" x="212.38" y="424.75" width="35.4" height="35.4"/><rect class="cls-1" x="247.77" y="424.75" width="35.4" height="35.4"/><rect class="cls-1" x="283.17" y="424.75" width="35.4" height="35.4"/><rect class="cls-1" x="318.56" y="424.75" width="35.4" height="35.4"/><rect class="cls-1" x="424.75" y="424.75" width="35.4" height="35.4"/><rect class="cls-1" x="460.15" y="424.75" width="35.4" height="35.4"/><rect class="cls-1" x="495.54" y="424.75" width="35.4" height="35.4"/><rect class="cls-1" x="530.94" y="424.75" width="35.4" height="35.4"/><rect class="cls-1" x="35.4" y="460.15" width="35.4" height="35.4"/><rect class="cls-1" x="70.79" y="460.15" width="35.4" height="35.4"/><rect class="cls-1" x="106.19" y="460.15" width="35.4" height="35.4"/><rect class="cls-1" x="141.58" y="460.15" width="35.4" height="35.4"/><rect class="cls-1" x="389.36" y="460.15" width="35.4" height="35.4"/><rect class="cls-1" x="424.75" y="460.15" width="35.4" height="35.4"/><rect class="cls-1" x="460.15" y="460.15" width="35.4" height="35.4"/><rect class="cls-1" x="495.54" y="460.15" width="35.4" height="35.4"/><rect class="cls-1" x="70.79" y="494.53" width="35.4" height="35.4"/><rect class="cls-1" x="106.19" y="494.53" width="35.4" height="35.4"/><rect class="cls-1" x="141.58" y="494.53" width="35.4" height="35.4"/><rect class="cls-1" x="176.98" y="494.53" width="35.4" height="35.4"/><rect class="cls-1" x="212.38" y="494.53" width="35.4" height="35.4"/><rect class="cls-1" x="247.77" y="494.53" width="35.4" height="35.4"/><rect class="cls-1" x="283.17" y="494.53" width="35.4" height="35.4"/><rect class="cls-1" x="318.56" y="494.53" width="35.4" height="35.4"/><rect class="cls-1" x="353.96" y="494.53" width="35.4" height="35.4"/><rect class="cls-1" x="389.36" y="494.53" width="35.4" height="35.4"/><rect class="cls-1" x="424.75" y="494.53" width="35.4" height="35.4"/><rect class="cls-1" x="460.15" y="494.53" width="35.4" height="35.4"/><rect class="cls-1" x="106.19" y="529.93" width="35.4" height="35.4"/><rect class="cls-1" x="141.58" y="529.93" width="35.4" height="35.4"/><rect class="cls-1" x="176.98" y="529.93" width="35.4" height="35.4"/><rect class="cls-1" x="212.38" y="529.93" width="35.4" height="35.4"/><rect class="cls-1" x="247.77" y="529.93" width="35.4" height="35.4"/><rect class="cls-1" x="283.17" y="529.93" width="35.4" height="35.4"/><rect class="cls-1" x="318.56" y="529.93" width="35.4" height="35.4"/><rect class="cls-1" x="353.96" y="529.93" width="35.4" height="35.4"/><rect class="cls-1" x="389.36" y="529.93" width="35.4" height="35.4"/><rect class="cls-1" x="424.75" y="529.93" width="35.4" height="35.4"/><rect class="cls-1" x="176.98" y="565.32" width="35.4" height="35.4"/><rect class="cls-1" x="212.38" y="565.32" width="35.4" height="35.4"/><rect class="cls-1" x="247.77" y="565.32" width="35.4" height="35.4"/><rect class="cls-1" x="283.17" y="565.32" width="35.4" height="35.4"/><rect class="cls-1" x="318.56" y="565.32" width="35.4" height="35.4"/><rect class="cls-1" x="353.96" y="565.32" width="35.4" height="35.4"/></g></svg>